<svg xmlns="http://www.w3.org/2000/svg" viewBox="0 0 900 560" width="900" height="560" role="img" aria-label="پوستر رویداد">
  <defs>
    <linearGradient id="bg" x1="0" y1="0" x2="1" y2="1"><stop offset="0" stop-color="#3E5B84"/><stop offset="1" stop-color="#0B2447"/></linearGradient>
    <radialGradient id="glow" cx="0.86" cy="0.08" r="0.75"><stop offset="0" stop-color="#fff" stop-opacity=".22"/><stop offset="1" stop-color="#fff" stop-opacity="0"/></radialGradient>
    <linearGradient id="shade" x1="0" y1="0" x2="0" y2="1"><stop offset=".45" stop-color="#000" stop-opacity="0"/><stop offset="1" stop-color="#000" stop-opacity=".34"/></linearGradient>
    <linearGradient id="glass" x1="0" y1="0" x2="1" y2="1"><stop offset="0" stop-color="#fff" stop-opacity=".24"/><stop offset="1" stop-color="#fff" stop-opacity=".05"/></linearGradient>
    <pattern id="dots" width="26" height="26" patternUnits="userSpaceOnUse"><circle cx="3" cy="3" r="1.5" fill="#fff" fill-opacity=".13"/></pattern>
  </defs>
  <rect width="900" height="560" fill="url(#bg)"/>
  <rect width="900" height="560" fill="url(#dots)"/>
  <rect width="900" height="560" fill="url(#glow)"/>
  <g transform="translate(450 262)">
    <circle r="152" fill="url(#glass)"/>
    <circle r="152" fill="none" stroke="#fff" stroke-opacity=".9" stroke-width="10"/>
    <circle r="124" fill="none" stroke="#fff" stroke-opacity=".3" stroke-width="4"/>
    <g fill="none" stroke="#fff" stroke-opacity=".2" stroke-width="36" stroke-linecap="round"
       stroke-dasharray="150 262" transform="rotate(-40)"><circle r="98"/></g>
    <path d="M0.0 -74.0 L66.0 -114.3 L64.1 -37.0 M64.1 -37.0 L132.0 0.0 L64.1 37.0 M64.1 37.0 L66.0 114.3 L0.0 74.0 M0.0 74.0 L-66.0 114.3 L-64.1 37.0 M-64.1 37.0 L-132.0 0.0 L-64.1 -37.0 M-64.1 -37.0 L-66.0 -114.3 L0.0 -74.0" fill="none" stroke="#fff" stroke-opacity=".34" stroke-width="11" stroke-linejoin="round"/>
    <path d="M0.0 -74.0 L64.1 -37.0 L64.1 37.0 L0.0 74.0 L-64.1 37.0 L-64.1 -37.0Z" fill="#0B2447" fill-opacity=".62" stroke="#fff" stroke-opacity=".95" stroke-width="12" stroke-linejoin="round"/>
    <circle r="19" fill="#fff" fill-opacity=".95"/>
  </g>
  <g fill="none" stroke="#fff" stroke-opacity=".45" stroke-width="7" stroke-linecap="round">
    <path d="M170 132v-30h30M730 132v-30h-30M170 392v30h30M730 392v30h-30"/>
  </g>
  <rect width="900" height="560" fill="url(#shade)"/>
  <g transform="translate(44 446)">
    <rect width="52" height="52" rx="16" fill="#fff" fill-opacity=".16"/>
    <path d="M16 37V15h7l11 14V15h6v22h-7L22 23v14z" fill="#fff" fill-opacity=".92"/>
  </g>
</svg>
