<svg xmlns="http://www.w3.org/2000/svg" viewBox="0 0 900 560" width="900" height="560" role="img" aria-label="پوستر رویداد">
  <defs>
    <linearGradient id="bg" x1="0" y1="0" x2="1" y2="1">
      <stop offset="0" stop-color="#2E6B7A"/><stop offset="1" stop-color="#0B2447"/>
    </linearGradient>
    <radialGradient id="glow" cx="0.86" cy="0.08" r="0.75">
      <stop offset="0" stop-color="#fff" stop-opacity=".22"/><stop offset="1" stop-color="#fff" stop-opacity="0"/>
    </radialGradient>
    <linearGradient id="shade" x1="0" y1="0" x2="0" y2="1">
      <stop offset=".45" stop-color="#000" stop-opacity="0"/><stop offset="1" stop-color="#000" stop-opacity=".34"/>
    </linearGradient>
    <pattern id="dots" width="26" height="26" patternUnits="userSpaceOnUse">
      <circle cx="3" cy="3" r="1.5" fill="#fff" fill-opacity=".13"/>
    </pattern>
    <g id="mark">
      <rect x="0" y="0" width="52" height="52" rx="16" fill="#fff" fill-opacity=".16"/>
      <path d="M16 37V15h7l11 14V15h6v22h-7L22 23v14z" fill="#fff" fill-opacity=".92"/>
    </g>
  </defs>
  <rect width="900" height="560" fill="url(#bg)"/>
  <rect width="900" height="560" fill="url(#dots)"/>
  <rect width="900" height="560" fill="url(#glow)"/>
  <g opacity=".9">
  <g transform="translate(450 250)">
    <circle cx="118" cy="-118" r="62" fill="#fff" fill-opacity=".85"/>
    <path d="M-300 170 12 -110 300 170z" fill="#fff" fill-opacity=".9"/>
    <path d="M12 -110 96 -24h-56l-28 30-30-30z" fill="#0B2447" fill-opacity=".35"/>
    <path d="M-60 170 -150 60 -300 170z" fill="#fff" fill-opacity=".55"/>
    <g stroke="#fff" stroke-opacity=".35" stroke-width="7" stroke-linecap="round" fill="none">
      <path d="M-240 -60h84M-264 -20h60M196 66h64"/>
    </g>
    <g fill="#fff" fill-opacity=".5"><circle cx="-206" cy="-150" r="9"/><circle cx="-150" cy="-186" r="6"/></g>
  </g>
</g>
  <rect width="900" height="560" fill="url(#shade)"/>
  <use href="#mark" x="44" y="446"/>
</svg>
